<?xml version="1.0" encoding="utf-8" standalone="no"?>
<!DOCTYPE svg PUBLIC "-//W3C//DTD SVG 1.1//EN"
  "http://www.w3.org/Graphics/SVG/1.1/DTD/svg11.dtd">
<svg xmlns:xlink="http://www.w3.org/1999/xlink" width="864pt" height="288pt" viewBox="0 0 864 288" xmlns="http://www.w3.org/2000/svg" version="1.1">
 <metadata>
  <rdf:RDF xmlns:dc="http://purl.org/dc/elements/1.1/" xmlns:cc="http://creativecommons.org/ns#" xmlns:rdf="http://www.w3.org/1999/02/22-rdf-syntax-ns#">
   <cc:Work>
    <dc:type rdf:resource="http://purl.org/dc/dcmitype/StillImage"/>
    <dc:date>2025-02-12T10:56:27.262091</dc:date>
    <dc:format>image/svg+xml</dc:format>
    <dc:creator>
     <cc:Agent>
      <dc:title>Matplotlib v3.9.4, https://matplotlib.org/</dc:title>
     </cc:Agent>
    </dc:creator>
   </cc:Work>
  </rdf:RDF>
 </metadata>
 <defs>
  <style type="text/css">*{stroke-linejoin: round; stroke-linecap: butt}</style>
 </defs>
 <g id="figure_1">
  <g id="patch_1">
   <path d="M 0 288 
L 864 288 
L 864 0 
L 0 0 
z
" style="fill: #ffffff"/>
  </g>
  <g id="axes_1">
   <g id="patch_2">
    <path d="M 108 256.32 
L 412.363636 256.32 
L 412.363636 34.56 
L 108 34.56 
z
" style="fill: #ffffff"/>
   </g>
   <g id="matplotlib.axis_1">
    <g id="xtick_1">
     <g id="line2d_1">
      <path d="M 121.834711 256.32 
L 121.834711 34.56 
" clip-path="url(#pdc8549ab87)" style="fill: none; stroke: #cccccc; stroke-linecap: round"/>
     </g>
     <g id="text_1">
      <!-- 2 -->
      <g style="fill: #262626" transform="translate(117.246937 277.630391) scale(0.165 -0.165)">
       <defs>
        <path id="ArialMT-32" d="M 3222 541 
L 3222 0 
L 194 0 
Q 188 203 259 391 
Q 375 700 629 1000 
Q 884 1300 1366 1694 
Q 2113 2306 2375 2664 
Q 2638 3022 2638 3341 
Q 2638 3675 2398 3904 
Q 2159 4134 1775 4134 
Q 1369 4134 1125 3890 
Q 881 3647 878 3216 
L 300 3275 
Q 359 3922 746 4261 
Q 1134 4600 1788 4600 
Q 2447 4600 2831 4234 
Q 3216 3869 3216 3328 
Q 3216 3053 3103 2787 
Q 2991 2522 2730 2228 
Q 2469 1934 1863 1422 
Q 1356 997 1212 845 
Q 1069 694 975 541 
L 3222 541 
z
" transform="scale(0.015625)"/>
       </defs>
       <use xlink:href="#ArialMT-32"/>
      </g>
     </g>
    </g>
    <g id="xtick_2">
     <g id="line2d_2">
      <path d="M 200.890201 256.32 
L 200.890201 34.56 
" clip-path="url(#pdc8549ab87)" style="fill: none; stroke: #cccccc; stroke-linecap: round"/>
     </g>
     <g id="text_2">
      <!-- 4 -->
      <g style="fill: #262626" transform="translate(196.302427 277.630391) scale(0.165 -0.165)">
       <defs>
        <path id="ArialMT-34" d="M 2069 0 
L 2069 1097 
L 81 1097 
L 81 1613 
L 2172 4581 
L 2631 4581 
L 2631 1613 
L 3250 1613 
L 3250 1097 
L 2631 1097 
L 2631 0 
L 2069 0 
z
M 2069 1613 
L 2069 3678 
L 634 1613 
L 2069 1613 
z
" transform="scale(0.015625)"/>
       </defs>
       <use xlink:href="#ArialMT-34"/>
      </g>
     </g>
    </g>
    <g id="xtick_3">
     <g id="line2d_3">
      <path d="M 279.945691 256.32 
L 279.945691 34.56 
" clip-path="url(#pdc8549ab87)" style="fill: none; stroke: #cccccc; stroke-linecap: round"/>
     </g>
     <g id="text_3">
      <!-- 6 -->
      <g style="fill: #262626" transform="translate(275.357917 277.630391) scale(0.165 -0.165)">
       <defs>
        <path id="ArialMT-36" d="M 3184 3459 
L 2625 3416 
Q 2550 3747 2413 3897 
Q 2184 4138 1850 4138 
Q 1581 4138 1378 3988 
Q 1113 3794 959 3422 
Q 806 3050 800 2363 
Q 1003 2672 1297 2822 
Q 1591 2972 1913 2972 
Q 2475 2972 2870 2558 
Q 3266 2144 3266 1488 
Q 3266 1056 3080 686 
Q 2894 316 2569 119 
Q 2244 -78 1831 -78 
Q 1128 -78 684 439 
Q 241 956 241 2144 
Q 241 3472 731 4075 
Q 1159 4600 1884 4600 
Q 2425 4600 2770 4297 
Q 3116 3994 3184 3459 
z
M 888 1484 
Q 888 1194 1011 928 
Q 1134 663 1356 523 
Q 1578 384 1822 384 
Q 2178 384 2434 671 
Q 2691 959 2691 1453 
Q 2691 1928 2437 2201 
Q 2184 2475 1800 2475 
Q 1419 2475 1153 2201 
Q 888 1928 888 1484 
z
" transform="scale(0.015625)"/>
       </defs>
       <use xlink:href="#ArialMT-36"/>
      </g>
     </g>
    </g>
    <g id="xtick_4">
     <g id="line2d_4">
      <path d="M 359.001181 256.32 
L 359.001181 34.56 
" clip-path="url(#pdc8549ab87)" style="fill: none; stroke: #cccccc; stroke-linecap: round"/>
     </g>
     <g id="text_4">
      <!-- 8 -->
      <g style="fill: #262626" transform="translate(354.413407 277.630391) scale(0.165 -0.165)">
       <defs>
        <path id="ArialMT-38" d="M 1131 2484 
Q 781 2613 612 2850 
Q 444 3088 444 3419 
Q 444 3919 803 4259 
Q 1163 4600 1759 4600 
Q 2359 4600 2725 4251 
Q 3091 3903 3091 3403 
Q 3091 3084 2923 2848 
Q 2756 2613 2416 2484 
Q 2838 2347 3058 2040 
Q 3278 1734 3278 1309 
Q 3278 722 2862 322 
Q 2447 -78 1769 -78 
Q 1091 -78 675 323 
Q 259 725 259 1325 
Q 259 1772 486 2073 
Q 713 2375 1131 2484 
z
M 1019 3438 
Q 1019 3113 1228 2906 
Q 1438 2700 1772 2700 
Q 2097 2700 2305 2904 
Q 2513 3109 2513 3406 
Q 2513 3716 2298 3927 
Q 2084 4138 1766 4138 
Q 1444 4138 1231 3931 
Q 1019 3725 1019 3438 
z
M 838 1322 
Q 838 1081 952 856 
Q 1066 631 1291 507 
Q 1516 384 1775 384 
Q 2178 384 2440 643 
Q 2703 903 2703 1303 
Q 2703 1709 2433 1975 
Q 2163 2241 1756 2241 
Q 1359 2241 1098 1978 
Q 838 1716 838 1322 
z
" transform="scale(0.015625)"/>
       </defs>
       <use xlink:href="#ArialMT-38"/>
      </g>
     </g>
    </g>
    <g id="text_5">
     <!-- k -->
     <g style="fill: #262626" transform="translate(255.681818 297.793828) scale(0.18 -0.18)">
      <defs>
       <path id="ArialMT-6b" d="M 425 0 
L 425 4581 
L 988 4581 
L 988 1969 
L 2319 3319 
L 3047 3319 
L 1778 2088 
L 3175 0 
L 2481 0 
L 1384 1697 
L 988 1316 
L 988 0 
L 425 0 
z
" transform="scale(0.015625)"/>
      </defs>
      <use xlink:href="#ArialMT-6b"/>
     </g>
    </g>
   </g>
   <g id="matplotlib.axis_2">
    <g id="ytick_1">
     <g id="line2d_5">
      <path d="M 108 246.247371 
L 412.363636 246.247371 
" clip-path="url(#pdc8549ab87)" style="fill: none; stroke: #cccccc; stroke-linecap: round"/>
     </g>
     <g id="text_6">
      <!-- 0 -->
      <g style="fill: #262626" transform="translate(89.324453 252.152567) scale(0.165 -0.165)">
       <defs>
        <path id="ArialMT-30" d="M 266 2259 
Q 266 3072 433 3567 
Q 600 4063 929 4331 
Q 1259 4600 1759 4600 
Q 2128 4600 2406 4451 
Q 2684 4303 2865 4023 
Q 3047 3744 3150 3342 
Q 3253 2941 3253 2259 
Q 3253 1453 3087 958 
Q 2922 463 2592 192 
Q 2263 -78 1759 -78 
Q 1097 -78 719 397 
Q 266 969 266 2259 
z
M 844 2259 
Q 844 1131 1108 757 
Q 1372 384 1759 384 
Q 2147 384 2411 759 
Q 2675 1134 2675 2259 
Q 2675 3391 2411 3762 
Q 2147 4134 1753 4134 
Q 1366 4134 1134 3806 
Q 844 3388 844 2259 
z
" transform="scale(0.015625)"/>
       </defs>
       <use xlink:href="#ArialMT-30"/>
      </g>
     </g>
    </g>
    <g id="ytick_2">
     <g id="line2d_6">
      <path d="M 108 204.652462 
L 412.363636 204.652462 
" clip-path="url(#pdc8549ab87)" style="fill: none; stroke: #cccccc; stroke-linecap: round"/>
     </g>
     <g id="text_7">
      <!-- 500 -->
      <g style="fill: #262626" transform="translate(70.973359 210.557658) scale(0.165 -0.165)">
       <defs>
        <path id="ArialMT-35" d="M 266 1200 
L 856 1250 
Q 922 819 1161 601 
Q 1400 384 1738 384 
Q 2144 384 2425 690 
Q 2706 997 2706 1503 
Q 2706 1984 2436 2262 
Q 2166 2541 1728 2541 
Q 1456 2541 1237 2417 
Q 1019 2294 894 2097 
L 366 2166 
L 809 4519 
L 3088 4519 
L 3088 3981 
L 1259 3981 
L 1013 2750 
Q 1425 3038 1878 3038 
Q 2478 3038 2890 2622 
Q 3303 2206 3303 1553 
Q 3303 931 2941 478 
Q 2500 -78 1738 -78 
Q 1113 -78 717 272 
Q 322 622 266 1200 
z
" transform="scale(0.015625)"/>
       </defs>
       <use xlink:href="#ArialMT-35"/>
       <use xlink:href="#ArialMT-30" x="55.615234"/>
       <use xlink:href="#ArialMT-30" x="111.230469"/>
      </g>
     </g>
    </g>
    <g id="ytick_3">
     <g id="line2d_7">
      <path d="M 108 163.057553 
L 412.363636 163.057553 
" clip-path="url(#pdc8549ab87)" style="fill: none; stroke: #cccccc; stroke-linecap: round"/>
     </g>
     <g id="text_8">
      <!-- 1000 -->
      <g style="fill: #262626" transform="translate(61.797812 168.962749) scale(0.165 -0.165)">
       <defs>
        <path id="ArialMT-31" d="M 2384 0 
L 1822 0 
L 1822 3584 
Q 1619 3391 1289 3197 
Q 959 3003 697 2906 
L 697 3450 
Q 1169 3672 1522 3987 
Q 1875 4303 2022 4600 
L 2384 4600 
L 2384 0 
z
" transform="scale(0.015625)"/>
       </defs>
       <use xlink:href="#ArialMT-31"/>
       <use xlink:href="#ArialMT-30" x="55.615234"/>
       <use xlink:href="#ArialMT-30" x="111.230469"/>
       <use xlink:href="#ArialMT-30" x="166.845703"/>
      </g>
     </g>
    </g>
    <g id="ytick_4">
     <g id="line2d_8">
      <path d="M 108 121.462645 
L 412.363636 121.462645 
" clip-path="url(#pdc8549ab87)" style="fill: none; stroke: #cccccc; stroke-linecap: round"/>
     </g>
     <g id="text_9">
      <!-- 1500 -->
      <g style="fill: #262626" transform="translate(61.797812 127.36784) scale(0.165 -0.165)">
       <use xlink:href="#ArialMT-31"/>
       <use xlink:href="#ArialMT-35" x="55.615234"/>
       <use xlink:href="#ArialMT-30" x="111.230469"/>
       <use xlink:href="#ArialMT-30" x="166.845703"/>
      </g>
     </g>
    </g>
    <g id="ytick_5">
     <g id="line2d_9">
      <path d="M 108 79.867736 
L 412.363636 79.867736 
" clip-path="url(#pdc8549ab87)" style="fill: none; stroke: #cccccc; stroke-linecap: round"/>
     </g>
     <g id="text_10">
      <!-- 2000 -->
      <g style="fill: #262626" transform="translate(61.797812 85.772931) scale(0.165 -0.165)">
       <use xlink:href="#ArialMT-32"/>
       <use xlink:href="#ArialMT-30" x="55.615234"/>
       <use xlink:href="#ArialMT-30" x="111.230469"/>
       <use xlink:href="#ArialMT-30" x="166.845703"/>
      </g>
     </g>
    </g>
    <g id="ytick_6">
     <g id="line2d_10">
      <path d="M 108 38.272827 
L 412.363636 38.272827 
" clip-path="url(#pdc8549ab87)" style="fill: none; stroke: #cccccc; stroke-linecap: round"/>
     </g>
     <g id="text_11">
      <!-- 2500 -->
      <g style="fill: #262626" transform="translate(61.797812 44.178022) scale(0.165 -0.165)">
       <use xlink:href="#ArialMT-32"/>
       <use xlink:href="#ArialMT-35" x="55.615234"/>
       <use xlink:href="#ArialMT-30" x="111.230469"/>
       <use xlink:href="#ArialMT-30" x="166.845703"/>
      </g>
     </g>
    </g>
    <g id="text_12">
     <!-- Time -->
     <g style="fill: #262626" transform="translate(54.220312 165.100781) rotate(-90) scale(0.18 -0.18)">
      <defs>
       <path id="ArialMT-54" d="M 1659 0 
L 1659 4041 
L 150 4041 
L 150 4581 
L 3781 4581 
L 3781 4041 
L 2266 4041 
L 2266 0 
L 1659 0 
z
" transform="scale(0.015625)"/>
       <path id="ArialMT-69" d="M 425 3934 
L 425 4581 
L 988 4581 
L 988 3934 
L 425 3934 
z
M 425 0 
L 425 3319 
L 988 3319 
L 988 0 
L 425 0 
z
" transform="scale(0.015625)"/>
       <path id="ArialMT-6d" d="M 422 0 
L 422 3319 
L 925 3319 
L 925 2853 
Q 1081 3097 1340 3245 
Q 1600 3394 1931 3394 
Q 2300 3394 2536 3241 
Q 2772 3088 2869 2813 
Q 3263 3394 3894 3394 
Q 4388 3394 4653 3120 
Q 4919 2847 4919 2278 
L 4919 0 
L 4359 0 
L 4359 2091 
Q 4359 2428 4304 2576 
Q 4250 2725 4106 2815 
Q 3963 2906 3769 2906 
Q 3419 2906 3187 2673 
Q 2956 2441 2956 1928 
L 2956 0 
L 2394 0 
L 2394 2156 
Q 2394 2531 2256 2718 
Q 2119 2906 1806 2906 
Q 1569 2906 1367 2781 
Q 1166 2656 1075 2415 
Q 984 2175 984 1722 
L 984 0 
L 422 0 
z
" transform="scale(0.015625)"/>
       <path id="ArialMT-65" d="M 2694 1069 
L 3275 997 
Q 3138 488 2766 206 
Q 2394 -75 1816 -75 
Q 1088 -75 661 373 
Q 234 822 234 1631 
Q 234 2469 665 2931 
Q 1097 3394 1784 3394 
Q 2450 3394 2872 2941 
Q 3294 2488 3294 1666 
Q 3294 1616 3291 1516 
L 816 1516 
Q 847 969 1125 678 
Q 1403 388 1819 388 
Q 2128 388 2347 550 
Q 2566 713 2694 1069 
z
M 847 1978 
L 2700 1978 
Q 2663 2397 2488 2606 
Q 2219 2931 1791 2931 
Q 1403 2931 1139 2672 
Q 875 2413 847 1978 
z
" transform="scale(0.015625)"/>
      </defs>
      <use xlink:href="#ArialMT-54"/>
      <use xlink:href="#ArialMT-69" x="57.333984"/>
      <use xlink:href="#ArialMT-6d" x="79.550781"/>
      <use xlink:href="#ArialMT-65" x="162.851562"/>
     </g>
    </g>
   </g>
   <g id="PolyCollection_1">
    <defs>
     <path id="mfac25b83be" d="M 121.834711 -42.103577 
L 121.834711 -42.098486 
L 161.362456 -42.086993 
L 200.890201 -42.08415 
L 240.417946 -42.430185 
L 279.945691 -42.157585 
L 319.473436 -42.167874 
L 359.001181 -42.158144 
L 398.528926 -42.156916 
L 398.528926 -42.163634 
L 398.528926 -42.163634 
L 359.001181 -42.164692 
L 319.473436 -42.175664 
L 279.945691 -42.159919 
L 240.417946 -42.441569 
L 200.890201 -42.08693 
L 161.362456 -42.090346 
L 121.834711 -42.103577 
z
" style="stroke: #ff1f5b; stroke-opacity: 0.2"/>
    </defs>
    <g clip-path="url(#pdc8549ab87)">
     <use xlink:href="#mfac25b83be" x="0" y="288" style="fill: #ff1f5b; fill-opacity: 0.2; stroke: #ff1f5b; stroke-opacity: 0.2"/>
    </g>
   </g>
   <g id="PolyCollection_2">
    <defs>
     <path id="mb2db32bb57" d="M 121.834711 -41.810806 
L 121.834711 -41.808455 
L 161.362456 -41.807496 
L 200.890201 -41.808192 
L 240.417946 -41.854268 
L 279.945691 -41.850056 
L 319.473436 -41.84793 
L 359.001181 -41.849051 
L 398.528926 -41.851727 
L 398.528926 -41.853963 
L 398.528926 -41.853963 
L 359.001181 -41.857148 
L 319.473436 -41.854982 
L 279.945691 -41.855493 
L 240.417946 -41.857539 
L 200.890201 -41.80958 
L 161.362456 -41.808873 
L 121.834711 -41.810806 
z
" style="stroke: #ffc61e; stroke-opacity: 0.2"/>
    </defs>
    <g clip-path="url(#pdc8549ab87)">
     <use xlink:href="#mb2db32bb57" x="0" y="288" style="fill: #ffc61e; fill-opacity: 0.2; stroke: #ffc61e; stroke-opacity: 0.2"/>
    </g>
   </g>
   <g id="PolyCollection_3">
    <defs>
     <path id="m496ff36fd6" d="M 121.834711 -42.134686 
L 121.834711 -42.121603 
L 161.362456 -42.126376 
L 200.890201 -42.129528 
L 240.417946 -42.166164 
L 279.945691 -42.166295 
L 319.473436 -42.17644 
L 359.001181 -42.167874 
L 398.528926 -42.172517 
L 398.528926 -42.180873 
L 398.528926 -42.180873 
L 359.001181 -42.178028 
L 319.473436 -42.183468 
L 279.945691 -42.18231 
L 240.417946 -42.175312 
L 200.890201 -42.134092 
L 161.362456 -42.130181 
L 121.834711 -42.134686 
z
" style="stroke: #009ade; stroke-opacity: 0.2"/>
    </defs>
    <g clip-path="url(#pdc8549ab87)">
     <use xlink:href="#m496ff36fd6" x="0" y="288" style="fill: #009ade; fill-opacity: 0.2; stroke: #009ade; stroke-opacity: 0.2"/>
    </g>
   </g>
   <g id="PolyCollection_4">
    <defs>
     <path id="m3d880adb01" d="M 121.834711 -242.65049 
L 121.834711 -241.59416 
L 161.362456 -242.333177 
L 200.890201 -242.398072 
L 240.417946 -242.340054 
L 279.945691 -242.827794 
L 319.473436 -242.331859 
L 359.001181 -242.207737 
L 398.528926 -241.49288 
L 398.528926 -242.810113 
L 398.528926 -242.810113 
L 359.001181 -243.30358 
L 319.473436 -243.018509 
L 279.945691 -243.36 
L 240.417946 -243.048795 
L 200.890201 -243.306012 
L 161.362456 -242.687639 
L 121.834711 -242.65049 
z
" style="stroke: #f28522; stroke-opacity: 0.2"/>
    </defs>
    <g clip-path="url(#pdc8549ab87)">
     <use xlink:href="#m3d880adb01" x="0" y="288" style="fill: #f28522; fill-opacity: 0.2; stroke: #f28522; stroke-opacity: 0.2"/>
    </g>
   </g>
   <g id="PolyCollection_5">
    <defs>
     <path id="maa1d855ebe" d="M 121.834711 -41.764377 
L 121.834711 -41.761594 
L 161.362456 -41.761098 
L 200.890201 -41.760827 
L 240.417946 -41.76 
L 279.945691 -41.760991 
L 319.473436 -41.76188 
L 359.001181 -41.761043 
L 398.528926 -41.760576 
L 398.528926 -41.763914 
L 398.528926 -41.763914 
L 359.001181 -41.764319 
L 319.473436 -41.763553 
L 279.945691 -41.761932 
L 240.417946 -41.76281 
L 200.890201 -41.764422 
L 161.362456 -41.764798 
L 121.834711 -41.764377 
z
" style="stroke: #af58ba; stroke-opacity: 0.2"/>
    </defs>
    <g clip-path="url(#pdc8549ab87)">
     <use xlink:href="#maa1d855ebe" x="0" y="288" style="fill: #af58ba; fill-opacity: 0.2; stroke: #af58ba; stroke-opacity: 0.2"/>
    </g>
   </g>
   <g id="line2d_11">
    <path d="M 121.834711 245.8993 
L 161.362456 245.911576 
L 200.890201 245.914456 
L 240.417946 245.564049 
L 279.945691 245.841253 
L 319.473436 245.828543 
L 359.001181 245.838321 
L 398.528926 245.839337 
" clip-path="url(#pdc8549ab87)" style="fill: none; stroke: #ff1f5b; stroke-width: 1.5; stroke-linecap: round"/>
   </g>
   <g id="line2d_12">
    <path d="M 121.834711 246.190371 
L 161.362456 246.191781 
L 200.890201 246.191117 
L 240.417946 246.143923 
L 279.945691 246.147273 
L 319.473436 246.148291 
L 359.001181 246.146861 
L 398.528926 246.147184 
" clip-path="url(#pdc8549ab87)" style="fill: none; stroke-dasharray: 6,2.25; stroke-dashoffset: 0; stroke: #ffc61e; stroke-width: 1.5"/>
   </g>
   <g id="line2d_13">
    <path d="M 121.834711 245.872399 
L 161.362456 245.872089 
L 200.890201 245.868353 
L 240.417946 245.829853 
L 279.945691 245.826389 
L 319.473436 245.820046 
L 359.001181 245.827196 
L 398.528926 245.82396 
" clip-path="url(#pdc8549ab87)" style="fill: none; stroke-dasharray: 1.5,1.5; stroke-dashoffset: 0; stroke: #009ade; stroke-width: 1.5"/>
   </g>
   <g id="line2d_14">
    <path d="M 121.834711 45.836034 
L 161.362456 45.487538 
L 200.890201 45.175888 
L 240.417946 45.305575 
L 279.945691 44.865746 
L 319.473436 45.318904 
L 359.001181 45.244342 
L 398.528926 45.895698 
" clip-path="url(#pdc8549ab87)" style="fill: none; stroke-dasharray: 4.5,1.875,2.25,1.875; stroke-dashoffset: 0; stroke: #f28522; stroke-width: 1.5"/>
   </g>
   <g id="line2d_15">
    <path d="M 121.834711 246.237369 
L 161.362456 246.237388 
L 200.890201 246.237647 
L 240.417946 246.238994 
L 279.945691 246.238407 
L 319.473436 246.237541 
L 359.001181 246.237711 
L 398.528926 246.238063 
" clip-path="url(#pdc8549ab87)" style="fill: none; stroke-dasharray: 7.5,1.5,1.5,1.5; stroke-dashoffset: 0; stroke: #af58ba; stroke-width: 1.5"/>
   </g>
   <g id="patch_3">
    <path d="M 108 256.32 
L 108 34.56 
" style="fill: none; stroke: #cccccc; stroke-width: 1.25; stroke-linejoin: miter; stroke-linecap: square"/>
   </g>
   <g id="patch_4">
    <path d="M 412.363636 256.32 
L 412.363636 34.56 
" style="fill: none; stroke: #cccccc; stroke-width: 1.25; stroke-linejoin: miter; stroke-linecap: square"/>
   </g>
   <g id="patch_5">
    <path d="M 108 256.32 
L 412.363636 256.32 
" style="fill: none; stroke: #cccccc; stroke-width: 1.25; stroke-linejoin: miter; stroke-linecap: square"/>
   </g>
   <g id="patch_6">
    <path d="M 108 34.56 
L 412.363636 34.56 
" style="fill: none; stroke: #cccccc; stroke-width: 1.25; stroke-linejoin: miter; stroke-linecap: square"/>
   </g>
  </g>
  <g id="axes_2">
   <g id="patch_7">
    <path d="M 473.236364 256.32 
L 777.6 256.32 
L 777.6 34.56 
L 473.236364 34.56 
z
" style="fill: #ffffff"/>
   </g>
   <g id="matplotlib.axis_3">
    <g id="xtick_5">
     <g id="line2d_16">
      <path d="M 487.071074 256.32 
L 487.071074 34.56 
" clip-path="url(#p22bccf0585)" style="fill: none; stroke: #cccccc; stroke-linecap: round"/>
     </g>
     <g id="text_13">
      <!-- 2 -->
      <g style="fill: #262626" transform="translate(482.483301 277.630391) scale(0.165 -0.165)">
       <use xlink:href="#ArialMT-32"/>
      </g>
     </g>
    </g>
    <g id="xtick_6">
     <g id="line2d_17">
      <path d="M 566.126564 256.32 
L 566.126564 34.56 
" clip-path="url(#p22bccf0585)" style="fill: none; stroke: #cccccc; stroke-linecap: round"/>
     </g>
     <g id="text_14">
      <!-- 4 -->
      <g style="fill: #262626" transform="translate(561.538791 277.630391) scale(0.165 -0.165)">
       <use xlink:href="#ArialMT-34"/>
      </g>
     </g>
    </g>
    <g id="xtick_7">
     <g id="line2d_18">
      <path d="M 645.182054 256.32 
L 645.182054 34.56 
" clip-path="url(#p22bccf0585)" style="fill: none; stroke: #cccccc; stroke-linecap: round"/>
     </g>
     <g id="text_15">
      <!-- 6 -->
      <g style="fill: #262626" transform="translate(640.594281 277.630391) scale(0.165 -0.165)">
       <use xlink:href="#ArialMT-36"/>
      </g>
     </g>
    </g>
    <g id="xtick_8">
     <g id="line2d_19">
      <path d="M 724.237544 256.32 
L 724.237544 34.56 
" clip-path="url(#p22bccf0585)" style="fill: none; stroke: #cccccc; stroke-linecap: round"/>
     </g>
     <g id="text_16">
      <!-- 8 -->
      <g style="fill: #262626" transform="translate(719.649771 277.630391) scale(0.165 -0.165)">
       <use xlink:href="#ArialMT-38"/>
      </g>
     </g>
    </g>
    <g id="text_17">
     <!-- k -->
     <g style="fill: #262626" transform="translate(620.918182 297.793828) scale(0.18 -0.18)">
      <use xlink:href="#ArialMT-6b"/>
     </g>
    </g>
   </g>
   <g id="matplotlib.axis_4">
    <g id="ytick_7">
     <g id="line2d_20">
      <path d="M 473.236364 248.420389 
L 777.6 248.420389 
" clip-path="url(#p22bccf0585)" style="fill: none; stroke: #cccccc; stroke-linecap: round"/>
     </g>
     <g id="text_18">
      <!-- 0 -->
      <g style="fill: #262626" transform="translate(454.560817 254.325584) scale(0.165 -0.165)">
       <use xlink:href="#ArialMT-30"/>
      </g>
     </g>
    </g>
    <g id="ytick_8">
     <g id="line2d_21">
      <path d="M 473.236364 199.206977 
L 777.6 199.206977 
" clip-path="url(#p22bccf0585)" style="fill: none; stroke: #cccccc; stroke-linecap: round"/>
     </g>
     <g id="text_19">
      <!-- 2 -->
      <g style="fill: #262626" transform="translate(454.560817 205.112172) scale(0.165 -0.165)">
       <use xlink:href="#ArialMT-32"/>
      </g>
     </g>
    </g>
    <g id="ytick_9">
     <g id="line2d_22">
      <path d="M 473.236364 149.993565 
L 777.6 149.993565 
" clip-path="url(#p22bccf0585)" style="fill: none; stroke: #cccccc; stroke-linecap: round"/>
     </g>
     <g id="text_20">
      <!-- 4 -->
      <g style="fill: #262626" transform="translate(454.560817 155.89876) scale(0.165 -0.165)">
       <use xlink:href="#ArialMT-34"/>
      </g>
     </g>
    </g>
    <g id="ytick_10">
     <g id="line2d_23">
      <path d="M 473.236364 100.780153 
L 777.6 100.780153 
" clip-path="url(#p22bccf0585)" style="fill: none; stroke: #cccccc; stroke-linecap: round"/>
     </g>
     <g id="text_21">
      <!-- 6 -->
      <g style="fill: #262626" transform="translate(454.560817 106.685348) scale(0.165 -0.165)">
       <use xlink:href="#ArialMT-36"/>
      </g>
     </g>
    </g>
    <g id="ytick_11">
     <g id="line2d_24">
      <path d="M 473.236364 51.566741 
L 777.6 51.566741 
" clip-path="url(#p22bccf0585)" style="fill: none; stroke: #cccccc; stroke-linecap: round"/>
     </g>
     <g id="text_22">
      <!-- 8 -->
      <g style="fill: #262626" transform="translate(454.560817 57.471936) scale(0.165 -0.165)">
       <use xlink:href="#ArialMT-38"/>
      </g>
     </g>
    </g>
    <g id="text_23">
     <!-- Time -->
     <g style="fill: #262626" transform="translate(446.983317 165.100781) rotate(-90) scale(0.18 -0.18)">
      <use xlink:href="#ArialMT-54"/>
      <use xlink:href="#ArialMT-69" x="57.333984"/>
      <use xlink:href="#ArialMT-6d" x="79.550781"/>
      <use xlink:href="#ArialMT-65" x="162.851562"/>
     </g>
    </g>
   </g>
   <g id="PolyCollection_6">
    <defs>
     <path id="m6c81ccda60" d="M 487.071074 -143.450795 
L 487.071074 -141.873916 
L 526.598819 -138.497785 
L 566.126564 -137.577298 
L 605.654309 -239.99388 
L 645.182054 -159.380896 
L 684.709799 -162.405006 
L 724.237544 -159.527074 
L 763.765289 -159.21543 
L 763.765289 -161.088048 
L 763.765289 -161.088048 
L 724.237544 -161.530373 
L 684.709799 -164.695801 
L 645.182054 -160.007772 
L 605.654309 -243.36 
L 566.126564 -138.464545 
L 526.598819 -139.483135 
L 487.071074 -143.450795 
z
" style="stroke: #ff1f5b; stroke-opacity: 0.2"/>
    </defs>
    <g clip-path="url(#p22bccf0585)">
     <use xlink:href="#m6c81ccda60" x="0" y="288" style="fill: #ff1f5b; fill-opacity: 0.2; stroke: #ff1f5b; stroke-opacity: 0.2"/>
    </g>
   </g>
   <g id="PolyCollection_7">
    <defs>
     <path id="m375382401f" d="M 487.071074 -56.787195 
L 487.071074 -56.09248 
L 526.598819 -55.829373 
L 566.126564 -56.014594 
L 605.654309 -69.643534 
L 645.182054 -68.397525 
L 684.709799 -67.701272 
L 724.237544 -68.122998 
L 763.765289 -68.893596 
L 763.765289 -69.580227 
L 763.765289 -69.580227 
L 724.237544 -70.495471 
L 684.709799 -69.744549 
L 645.182054 -70.00581 
L 605.654309 -70.606878 
L 566.126564 -56.417677 
L 526.598819 -56.2293 
L 487.071074 -56.787195 
z
" style="stroke: #ffc61e; stroke-opacity: 0.2"/>
    </defs>
    <g clip-path="url(#p22bccf0585)">
     <use xlink:href="#m375382401f" x="0" y="288" style="fill: #ffc61e; fill-opacity: 0.2; stroke: #ffc61e; stroke-opacity: 0.2"/>
    </g>
   </g>
   <g id="PolyCollection_8">
    <defs>
     <path id="mbbb22731e0" d="M 487.071074 -152.474909 
L 487.071074 -148.718636 
L 526.598819 -150.130309 
L 566.126564 -151.021999 
L 605.654309 -161.907489 
L 645.182054 -161.528699 
L 684.709799 -164.873471 
L 724.237544 -162.334563 
L 763.765289 -163.762745 
L 763.765289 -166.188499 
L 763.765289 -166.188499 
L 724.237544 -165.54221 
L 684.709799 -167.017619 
L 645.182054 -166.551327 
L 605.654309 -164.628662 
L 566.126564 -152.412543 
L 526.598819 -151.255859 
L 487.071074 -152.474909 
z
" style="stroke: #009ade; stroke-opacity: 0.2"/>
    </defs>
    <g clip-path="url(#p22bccf0585)">
     <use xlink:href="#mbbb22731e0" x="0" y="288" style="fill: #009ade; fill-opacity: 0.2; stroke: #009ade; stroke-opacity: 0.2"/>
    </g>
   </g>
   <g id="PolyCollection_9">
    <defs>
     <path id="me6fdbc1a62" d="M 487.071074 -43.054585 
L 487.071074 -42.2517 
L 526.598819 -42.086992 
L 566.126564 -42.003046 
L 605.654309 -41.76 
L 645.182054 -42.053047 
L 684.709799 -42.316096 
L 724.237544 -42.005627 
L 763.765289 -41.92731 
L 763.765289 -42.881194 
L 763.765289 -42.881194 
L 724.237544 -43.034716 
L 684.709799 -42.811088 
L 645.182054 -42.331446 
L 605.654309 -42.591213 
L 566.126564 -43.075725 
L 526.598819 -43.176975 
L 487.071074 -43.054585 
z
" style="stroke: #af58ba; stroke-opacity: 0.2"/>
    </defs>
    <g clip-path="url(#p22bccf0585)">
     <use xlink:href="#me6fdbc1a62" x="0" y="288" style="fill: #af58ba; fill-opacity: 0.2; stroke: #af58ba; stroke-opacity: 0.2"/>
    </g>
   </g>
   <g id="line2d_25">
    <path d="M 487.071074 145.464371 
L 526.598819 149.095382 
L 566.126564 149.947507 
L 605.654309 46.300657 
L 645.182054 128.294642 
L 684.709799 124.535182 
L 724.237544 127.427522 
L 763.765289 127.727801 
" clip-path="url(#p22bccf0585)" style="fill: none; stroke: #ff1f5b; stroke-width: 1.5; stroke-linecap: round"/>
   </g>
   <g id="line2d_26">
    <path d="M 487.071074 231.560165 
L 526.598819 231.977271 
L 566.126564 231.780801 
L 605.654309 217.821255 
L 645.182054 218.812391 
L 684.709799 219.113495 
L 724.237544 218.690485 
L 763.765289 218.785933 
" clip-path="url(#p22bccf0585)" style="fill: none; stroke-dasharray: 6,2.25; stroke-dashoffset: 0; stroke: #ffc61e; stroke-width: 1.5"/>
   </g>
   <g id="line2d_27">
    <path d="M 487.071074 137.50722 
L 526.598819 137.415588 
L 566.126564 136.310636 
L 605.654309 124.922565 
L 645.182054 123.898064 
L 684.709799 122.021771 
L 724.237544 124.136841 
L 763.765289 123.179533 
" clip-path="url(#p22bccf0585)" style="fill: none; stroke-dasharray: 1.5,1.5; stroke-dashoffset: 0; stroke: #009ade; stroke-width: 1.5"/>
   </g>
   <g id="line2d_28">
    <path d="M 487.071074 245.461798 
L 526.598819 245.467452 
L 566.126564 245.54399 
L 605.654309 245.942451 
L 645.182054 245.768943 
L 684.709799 245.512574 
L 724.237544 245.562854 
L 763.765289 245.666967 
" clip-path="url(#p22bccf0585)" style="fill: none; stroke-dasharray: 4.5,1.875,2.25,1.875; stroke-dashoffset: 0; stroke: #af58ba; stroke-width: 1.5"/>
   </g>
   <g id="patch_8">
    <path d="M 473.236364 256.32 
L 473.236364 34.56 
" style="fill: none; stroke: #cccccc; stroke-width: 1.25; stroke-linejoin: miter; stroke-linecap: square"/>
   </g>
   <g id="patch_9">
    <path d="M 777.6 256.32 
L 777.6 34.56 
" style="fill: none; stroke: #cccccc; stroke-width: 1.25; stroke-linejoin: miter; stroke-linecap: square"/>
   </g>
   <g id="patch_10">
    <path d="M 473.236364 256.32 
L 777.6 256.32 
" style="fill: none; stroke: #cccccc; stroke-width: 1.25; stroke-linejoin: miter; stroke-linecap: square"/>
   </g>
   <g id="patch_11">
    <path d="M 473.236364 34.56 
L 777.6 34.56 
" style="fill: none; stroke: #cccccc; stroke-width: 1.25; stroke-linejoin: miter; stroke-linecap: square"/>
   </g>
  </g>
 </g>
 <defs>
  <clipPath id="pdc8549ab87">
   <rect x="108" y="34.56" width="304.363636" height="221.76"/>
  </clipPath>
  <clipPath id="p22bccf0585">
   <rect x="473.236364" y="34.56" width="304.363636" height="221.76"/>
  </clipPath>
 </defs>
</svg>
